<?xml version="1.0" encoding="UTF-8"?>
<!DOCTYPE svg PUBLIC "-//W3C//DTD SVG 1.1//EN" "http://www.w3.org/Graphics/SVG/1.1/DTD/svg11.dtd">
<svg xmlns="http://www.w3.org/2000/svg" version="1.1" width="512px" height="512px" style="shape-rendering:geometricPrecision; text-rendering:geometricPrecision; image-rendering:optimizeQuality; fill-rule:evenodd; clip-rule:evenodd" xmlns:xlink="http://www.w3.org/1999/xlink">
<g><path style="opacity:0.999" fill="#390050" d="M 108.5,-0.5 C 203.833,-0.5 299.167,-0.5 394.5,-0.5C 396.397,0.804778 398.731,1.47144 401.5,1.5C 404.551,1.4021 407.551,1.06877 410.5,0.5C 411.833,0.5 413.167,0.5 414.5,0.5C 414.5,1.83333 414.5,3.16667 414.5,4.5C 416.621,4.67474 418.621,4.34141 420.5,3.5C 422.167,3.5 423.833,3.5 425.5,3.5C 425.5,4.5 425.5,5.5 425.5,6.5C 427.167,6.5 428.833,6.5 430.5,6.5C 433.308,6.69332 435.975,7.35998 438.5,8.5C 438.5,9.5 438.5,10.5 438.5,11.5C 439.5,11.5 440.5,11.5 441.5,11.5C 444.076,11.4679 446.409,12.1346 448.5,13.5C 448.5,14.8333 448.5,16.1667 448.5,17.5C 455.99,22.677 463.657,27.677 471.5,32.5C 471.833,35.5 473.5,37.1667 476.5,37.5C 476.491,39.3084 476.991,40.9751 478,42.5C 481.42,46.4272 485.253,49.7606 489.5,52.5C 492.685,56.701 495.019,61.3677 496.5,66.5C 497.5,66.5 498.5,66.5 499.5,66.5C 499.5,66.8333 499.5,67.1667 499.5,67.5C 501.074,72.7699 502.408,78.1032 503.5,83.5C 504.833,83.5 506.167,83.5 507.5,83.5C 507.821,85.0481 508.821,85.7148 510.5,85.5C 510.194,88.3854 510.527,91.0521 511.5,93.5C 511.5,201.5 511.5,309.5 511.5,417.5C 510.549,418.919 510.216,420.585 510.5,422.5C 509.5,422.5 508.5,422.5 507.5,422.5C 507.5,423.5 507.5,424.5 507.5,425.5C 507.5,426.5 507.5,427.5 507.5,428.5C 506.5,428.5 505.5,428.5 504.5,428.5C 505.244,431.95 503.91,433.616 500.5,433.5C 494.943,442.999 490.277,452.999 486.5,463.5C 485.5,463.5 484.5,463.5 483.5,463.5C 483.719,464.675 483.386,465.675 482.5,466.5C 478.894,469.261 475.561,472.261 472.5,475.5C 471.614,476.325 471.281,477.325 471.5,478.5C 470.5,478.5 469.5,478.5 468.5,478.5C 468.5,479.5 468.5,480.5 468.5,481.5C 466.336,481.721 464.67,482.721 463.5,484.5C 463.5,485.833 462.833,486.5 461.5,486.5C 460.127,486.343 458.793,486.51 457.5,487C 455.76,488.694 453.76,489.861 451.5,490.5C 451.5,491.5 451.5,492.5 451.5,493.5C 450.167,493.5 448.833,493.5 447.5,493.5C 447.5,494.833 447.5,496.167 447.5,497.5C 445.886,499.075 443.886,499.741 441.5,499.5C 440.258,498.957 438.925,498.623 437.5,498.5C 432.275,500.056 427.275,501.722 422.5,503.5C 422.5,504.833 422.5,506.167 422.5,507.5C 421.833,507.5 421.167,507.5 420.5,507.5C 418.712,507.215 417.045,507.548 415.5,508.5C 415.863,509.183 416.196,509.85 416.5,510.5C 413.287,510.19 410.287,510.523 407.5,511.5C 310.833,511.5 214.167,511.5 117.5,511.5C 117.03,510.307 116.03,509.64 114.5,509.5C 112.488,509.84 110.488,510.173 108.5,510.5C 106.167,510.5 103.833,510.5 101.5,510.5C 101.5,509.5 101.5,508.5 101.5,507.5C 99.5,507.5 97.5,507.5 95.5,507.5C 92.1625,507.935 89.1625,507.268 86.5,505.5C 86.5,504.5 86.5,503.5 86.5,502.5C 84.5,502.5 82.5,502.5 80.5,502.5C 78.8333,502.5 77.1667,502.5 75.5,502.5C 75.5,501.5 75.5,500.5 75.5,499.5C 72.9242,499.532 70.5909,498.865 68.5,497.5C 68.5,496.167 68.5,494.833 68.5,493.5C 62.9918,489.394 56.9918,485.728 50.5,482.5C 45.6118,476.547 40.6118,470.714 35.5,465C 33.6547,463.872 31.6547,463.372 29.5,463.5C 29.5198,461.857 28.8532,460.524 27.5,459.5C 26.3864,458.224 25.3864,458.224 24.5,459.5C 23.596,458.791 23.2627,457.791 23.5,456.5C 24.1239,456.083 24.4573,455.416 24.5,454.5C 23.3035,451.911 22.3035,449.244 21.5,446.5C 19.9291,445.691 18.2624,445.357 16.5,445.5C 16.1788,443.952 15.1788,443.285 13.5,443.5C 12.8333,440.167 12.1667,436.833 11.5,433.5C 11.5,432.5 11.5,431.5 11.5,430.5C 10.5,430.5 9.5,430.5 8.5,430.5C 7.47459,426.573 6.80793,422.573 6.5,418.5C 6.5,416.5 6.5,414.5 6.5,412.5C 5.5,412.5 4.5,412.5 3.5,412.5C 3.5,410.833 3.5,409.167 3.5,407.5C 3.5,404.833 3.5,402.167 3.5,399.5C 2.5,399.5 1.5,399.5 0.5,399.5C 0.5,303.833 0.5,208.167 0.5,112.5C 1.31382,114.631 1.81382,116.964 2,119.5C 2.91471,118.672 3.58138,117.672 4,116.5C 4.81194,112.311 4.64528,108.311 3.5,104.5C 3.5,104.167 3.5,103.833 3.5,103.5C 3.5,101.833 3.5,100.167 3.5,98.5C 4.5,98.5 5.5,98.5 6.5,98.5C 6.5,96.8333 6.5,95.1667 6.5,93.5C 7.16667,88.1667 7.83333,82.8333 8.5,77.5C 9.5,77.5 10.5,77.5 11.5,77.5C 11.4679,74.9242 12.1346,72.5909 13.5,70.5C 14.8333,70.5 16.1667,70.5 17.5,70.5C 17.5,69.5 17.5,68.5 17.5,67.5C 19.9124,67.756 21.5791,66.756 22.5,64.5C 26.1493,54.5168 31.8159,45.8501 39.5,38.5C 40.2458,37.2638 40.5792,35.9305 40.5,34.5C 41.404,33.791 41.7373,32.791 41.5,31.5C 43.5,30.8333 45.5,30.1667 47.5,29.5C 47.2852,27.8212 47.9519,26.8212 49.5,26.5C 51.5,25.8333 53.5,25.1667 55.5,24.5C 55.5,23.5 55.5,22.5 55.5,21.5C 56.1667,21.5 56.8333,21.5 57.5,21.5C 61.1356,20.0103 64.8023,18.677 68.5,17.5C 68.5,16.1667 68.5,14.8333 68.5,13.5C 69.1667,13.5 69.8333,13.5 70.5,13.5C 70.7911,14.6491 71.6244,15.3158 73,15.5C 77.3306,13.1483 81.8306,11.3149 86.5,10C 88.3373,8.04751 90.6706,7.04751 93.5,7C 94.3366,5.98873 94.67,4.82207 94.5,3.5C 94.8333,3.5 95.1667,3.5 95.5,3.5C 97.5,3.5 99.5,3.5 101.5,3.5C 101.5,2.5 101.5,1.5 101.5,0.5C 104.059,0.801552 106.393,0.468218 108.5,-0.5 Z"/></g>
<g><path style="opacity:0.765" fill="#785087" d="M 394.5,-0.5 C 399.833,-0.5 405.167,-0.5 410.5,-0.5C 410.5,-0.166667 410.5,0.166667 410.5,0.5C 407.551,1.06877 404.551,1.4021 401.5,1.5C 398.731,1.47144 396.397,0.804778 394.5,-0.5 Z"/></g>
<g><path style="opacity:0.129" fill="#a485b1" d="M 101.5,0.5 C 101.5,1.5 101.5,2.5 101.5,3.5C 99.5,3.5 97.5,3.5 95.5,3.5C 95.4142,2.5041 95.7476,1.67076 96.5,1C 98.1341,0.506489 99.8008,0.339822 101.5,0.5 Z"/></g>
<g><path style="opacity:0.537" fill="#836090" d="M 414.5,0.5 C 416.199,0.339822 417.866,0.506489 419.5,1C 420.252,1.67076 420.586,2.5041 420.5,3.5C 418.621,4.34141 416.621,4.67474 414.5,4.5C 414.5,3.16667 414.5,1.83333 414.5,0.5 Z"/></g>
<g><path style="opacity:0.09" fill="#ad9bb9" d="M 425.5,3.5 C 427.167,3.5 428.833,3.5 430.5,3.5C 430.5,4.5 430.5,5.5 430.5,6.5C 428.833,6.5 427.167,6.5 425.5,6.5C 425.5,5.5 425.5,4.5 425.5,3.5 Z"/></g>
<g><path style="opacity:0.09" fill="#bfaec1" d="M 88.5,3.5 C 88.5,4.5 88.5,5.5 88.5,6.5C 87.5,6.5 86.5,6.5 85.5,6.5C 85.5,5.5 85.5,4.5 85.5,3.5C 86.5,3.5 87.5,3.5 88.5,3.5 Z"/></g>
<g><path style="opacity:0.816" fill="#5e3171" d="M 88.5,3.5 C 90.5,3.5 92.5,3.5 94.5,3.5C 94.67,4.82207 94.3366,5.98873 93.5,7C 90.6706,7.04751 88.3373,8.04751 86.5,10C 81.8306,11.3149 77.3306,13.1483 73,15.5C 71.6244,15.3158 70.7911,14.6491 70.5,13.5C 71.5521,11.744 73.2188,11.0773 75.5,11.5C 75.5,10.5 75.5,9.5 75.5,8.5C 78.8333,7.83333 82.1667,7.16667 85.5,6.5C 86.5,6.5 87.5,6.5 88.5,6.5C 88.5,5.5 88.5,4.5 88.5,3.5 Z"/></g>
<g><path style="opacity:0.178" fill="#967a9b" d="M 438.5,8.5 C 440.5,8.5 441.5,9.5 441.5,11.5C 440.5,11.5 439.5,11.5 438.5,11.5C 438.5,10.5 438.5,9.5 438.5,8.5 Z"/></g>
<g><path style="opacity:0.388" fill="#6f447d" d="M 68.5,13.5 C 68.5,14.8333 68.5,16.1667 68.5,17.5C 64.8023,18.677 61.1356,20.0103 57.5,21.5C 57.4802,19.857 58.1468,18.5237 59.5,17.5C 62.7379,16.3442 65.7379,15.0109 68.5,13.5 Z"/></g>
<g><path style="opacity:0.063" fill="#9677a0" d="M 55.5,21.5 C 55.5,22.5 55.5,23.5 55.5,24.5C 53.5,25.1667 51.5,25.8333 49.5,26.5C 49.4142,25.5041 49.7476,24.6708 50.5,24C 51.9003,22.5619 53.567,21.7286 55.5,21.5 Z"/></g>
<g><path style="opacity:0.005" fill="#fefffe" d="M 39.5,34.5 C 39.5,35.8333 38.8333,36.5 37.5,36.5C 37.8333,35.5 38.5,34.8333 39.5,34.5 Z"/></g>
<g><path style="opacity:0.418" fill="#57276b" d="M 448.5,13.5 C 449.5,13.5 450.5,13.5 451.5,13.5C 451.5,14.5 451.5,15.5 451.5,16.5C 453.288,16.2148 454.955,16.5481 456.5,17.5C 460.739,20.7737 465.072,23.7737 469.5,26.5C 469.833,29.5 471.5,31.1667 474.5,31.5C 474.833,34.5 476.5,36.1667 479.5,36.5C 479.5,37.5 479.5,38.5 479.5,39.5C 482.5,39.8333 484.167,41.5 484.5,44.5C 485.5,44.5 486.5,44.5 487.5,44.5C 487.831,46.3224 488.498,47.9891 489.5,49.5C 489.5,50.5 489.5,51.5 489.5,52.5C 485.253,49.7606 481.42,46.4272 478,42.5C 476.991,40.9751 476.491,39.3084 476.5,37.5C 473.5,37.1667 471.833,35.5 471.5,32.5C 463.657,27.677 455.99,22.677 448.5,17.5C 448.5,16.1667 448.5,14.8333 448.5,13.5 Z"/></g>
<g><path style="opacity:0.051" fill="#b2aeb2" d="M 26.5,49.5 C 26.5,50.5 26.5,51.5 26.5,52.5C 25.5,52.5 24.5,52.5 23.5,52.5C 23.5,50.5 24.5,49.5 26.5,49.5 Z"/></g>
<g><path style="opacity:0.059" fill="#cac0d6" d="M 489.5,49.5 C 491.5,49.5 492.5,50.5 492.5,52.5C 491.5,52.5 490.5,52.5 489.5,52.5C 489.5,51.5 489.5,50.5 489.5,49.5 Z"/></g>
<g><path style="opacity:0.475" fill="#714580" d="M 489.5,52.5 C 490.5,52.5 491.5,52.5 492.5,52.5C 493.502,54.0109 494.169,55.6776 494.5,57.5C 495.5,57.5 496.5,57.5 497.5,57.5C 497.928,60.5641 498.594,63.5641 499.5,66.5C 498.5,66.5 497.5,66.5 496.5,66.5C 495.019,61.3677 492.685,56.701 489.5,52.5 Z"/></g>
<g><path style="opacity:0.906" fill="#5b2c6d" d="M 39.5,34.5 C 39.8333,34.5 40.1667,34.5 40.5,34.5C 40.5792,35.9305 40.2458,37.2638 39.5,38.5C 31.8159,45.8501 26.1493,54.5168 22.5,64.5C 21.5791,66.756 19.9124,67.756 17.5,67.5C 17.5,68.5 17.5,69.5 17.5,70.5C 16.1667,70.5 14.8333,70.5 13.5,70.5C 13.3505,69.448 13.5172,68.448 14,67.5C 17.0206,62.3002 20.1873,57.3002 23.5,52.5C 24.5,52.5 25.5,52.5 26.5,52.5C 26.5,51.5 26.5,50.5 26.5,49.5C 26.8212,47.9519 27.8212,47.2852 29.5,47.5C 30.1667,45.5 30.8333,43.5 31.5,41.5C 34.4248,40.906 36.4248,39.2393 37.5,36.5C 38.8333,36.5 39.5,35.8333 39.5,34.5 Z"/></g>
<g><path style="opacity:0.647" fill="#653976" d="M 499.5,67.5 C 500.5,67.5 501.5,67.5 502.5,67.5C 504.761,72.5139 506.428,77.8472 507.5,83.5C 506.167,83.5 504.833,83.5 503.5,83.5C 502.408,78.1032 501.074,72.7699 499.5,67.5 Z"/></g>
<g><path style="opacity:0.09" fill="#af8eb5" d="M 6.5,93.5 C 6.5,95.1667 6.5,96.8333 6.5,98.5C 5.5,98.5 4.5,98.5 3.5,98.5C 3.5,96.8333 3.5,95.1667 3.5,93.5C 4.5,93.5 5.5,93.5 6.5,93.5 Z"/></g>
<g><path style="opacity:0.031" fill="#b4a3b9" d="M 3.5,103.5 C 3.5,103.833 3.5,104.167 3.5,104.5C 3.80756,106.924 3.47423,109.257 2.5,111.5C 1.81815,110.757 1.15149,110.091 0.5,109.5C 0.031076,106.607 1.03108,104.607 3.5,103.5 Z"/></g>
<g><path style="opacity:1" fill="#57276a" d="M 282.5,116.5 C 279.14,116.384 275.807,116.051 272.5,115.5C 260.229,113.96 247.896,114.293 235.5,116.5C 236.347,115.034 237.68,114.2 239.5,114C 253.829,113.5 268.163,113.333 282.5,113.5C 282.5,114.5 282.5,115.5 282.5,116.5 Z"/></g>
<g><path style="opacity:1" fill="#fdfcfd" d="M 265.5,115.5 C 272.131,117.987 279.131,119.154 286.5,119C 292.287,119.987 297.953,121.154 303.5,122.5C 306.27,124.941 309.603,126.274 313.5,126.5C 316.875,127.991 320.208,129.824 323.5,132C 324.793,132.49 326.127,132.657 327.5,132.5C 327.953,133.458 328.619,134.292 329.5,135C 332.394,136.732 335.394,138.232 338.5,139.5C 338.833,140.167 339.167,140.833 339.5,141.5C 339.281,142.675 339.614,143.675 340.5,144.5C 343.807,147.149 347.307,149.482 351,151.5C 351.895,154.466 351.395,157.133 349.5,159.5C 317.839,160.333 286.172,160.833 254.5,161C 253.944,161.383 253.611,161.883 253.5,162.5C 249.154,162.334 244.821,162.501 240.5,163C 238.68,163.2 237.347,164.034 236.5,165.5C 232.838,165.723 229.505,166.723 226.5,168.5C 222.134,167.749 218.801,169.082 216.5,172.5C 213.092,175.264 209.426,177.598 205.5,179.5C 198.312,183.183 192.145,188.183 187,194.5C 185.374,197.128 183.374,199.461 181,201.5C 180.392,203.154 179.892,204.821 179.5,206.5C 177.648,209.383 175.981,212.383 174.5,215.5C 172.026,217.898 170.692,220.898 170.5,224.5C 169.504,224.414 168.671,224.748 168,225.5C 167.53,227.774 166.53,229.774 165,231.5C 163.241,240.714 162.408,250.048 162.5,259.5C 148.87,260.446 135.203,260.78 121.5,260.5C 120.542,260.047 119.708,259.381 119,258.5C 118.26,247.752 118.926,237.085 121,226.5C 123.685,216.792 126.852,207.125 130.5,197.5C 130.5,197.167 130.5,196.833 130.5,196.5C 131.458,196.047 132.292,195.381 133,194.5C 134.14,191.898 134.973,189.231 135.5,186.5C 140.553,183.67 143.386,179.337 144,173.5C 147.129,170.519 149.629,167.186 151.5,163.5C 156.412,159.255 161.078,154.588 165.5,149.5C 169.258,147.634 172.592,145.301 175.5,142.5C 175.5,142.167 175.5,141.833 175.5,141.5C 181.122,138.528 186.455,135.195 191.5,131.5C 192.708,130.766 194.041,130.433 195.5,130.5C 200.041,129.44 204.041,127.44 207.5,124.5C 208.391,123.89 209.391,123.557 210.5,123.5C 228.429,118.144 246.762,115.477 265.5,115.5 Z"/></g>
<g><path style="opacity:1" fill="#baa6c2" d="M 265.5,115.5 C 267.833,115.5 270.167,115.5 272.5,115.5C 275.807,116.051 279.14,116.384 282.5,116.5C 287.819,118.714 293.486,119.881 299.5,120C 300.858,120.934 302.192,121.768 303.5,122.5C 297.953,121.154 292.287,119.987 286.5,119C 279.131,119.154 272.131,117.987 265.5,115.5 Z"/></g>
<g><path style="opacity:0.392" fill="#633575" d="M 3.5,104.5 C 4.64528,108.311 4.81194,112.311 4,116.5C 3.58138,117.672 2.91471,118.672 2,119.5C 1.81382,116.964 1.31382,114.631 0.5,112.5C 0.5,111.5 0.5,110.5 0.5,109.5C 1.15149,110.091 1.81815,110.757 2.5,111.5C 3.47423,109.257 3.80756,106.924 3.5,104.5 Z"/></g>
<g><path style="opacity:1" fill="#9a7da6" d="M 272.5,115.5 C 270.167,115.5 267.833,115.5 265.5,115.5C 246.762,115.477 228.429,118.144 210.5,123.5C 211.483,122.15 212.816,121.15 214.5,120.5C 218.462,120.058 222.129,118.891 225.5,117C 228.817,116.502 232.15,116.335 235.5,116.5C 247.896,114.293 260.229,113.96 272.5,115.5 Z"/></g>
<g><path style="opacity:1" fill="#9d81a8" d="M 303.5,122.5 C 306.574,122.873 309.574,123.539 312.5,124.5C 312.833,125.167 313.167,125.833 313.5,126.5C 309.603,126.274 306.27,124.941 303.5,122.5 Z"/></g>
<g><path style="opacity:1" fill="#b39dbb" d="M 207.5,124.5 C 204.041,127.44 200.041,129.44 195.5,130.5C 198.962,127.436 202.962,125.436 207.5,124.5 Z"/></g>
<g><path style="opacity:1" fill="#693f7a" d="M 312.5,124.5 C 315.322,125.815 318.322,126.815 321.5,127.5C 323.162,129.652 325.162,131.318 327.5,132.5C 326.127,132.657 324.793,132.49 323.5,132C 320.208,129.824 316.875,127.991 313.5,126.5C 313.167,125.833 312.833,125.167 312.5,124.5 Z"/></g>
<g><path style="opacity:1" fill="#785187" d="M 327.5,132.5 C 332.002,133.696 335.669,136.029 338.5,139.5C 335.394,138.232 332.394,136.732 329.5,135C 328.619,134.292 327.953,133.458 327.5,132.5 Z"/></g>
<g><path style="opacity:1" fill="#9475a0" d="M 191.5,131.5 C 186.455,135.195 181.122,138.528 175.5,141.5C 180.032,136.984 185.366,133.65 191.5,131.5 Z"/></g>
<g><path style="opacity:1" fill="#9b7ea6" d="M 175.5,142.5 C 172.592,145.301 169.258,147.634 165.5,149.5C 167.472,145.375 170.806,143.042 175.5,142.5 Z"/></g>
<g><path style="opacity:1" fill="#d1c3d6" d="M 339.5,141.5 C 344.452,144.294 348.952,147.627 353,151.5C 355.026,157.338 353.192,161.005 347.5,162.5C 316.167,162.5 284.833,162.5 253.5,162.5C 253.611,161.883 253.944,161.383 254.5,161C 286.172,160.833 317.839,160.333 349.5,159.5C 351.395,157.133 351.895,154.466 351,151.5C 347.307,149.482 343.807,147.149 340.5,144.5C 339.614,143.675 339.281,142.675 339.5,141.5 Z"/></g>
<g><path style="opacity:1" fill="#a38aae" d="M 253.5,162.5 C 284.833,162.5 316.167,162.5 347.5,162.5C 347.5,162.833 347.5,163.167 347.5,163.5C 312.165,163.333 276.832,163.5 241.5,164C 239.846,164.608 238.179,165.108 236.5,165.5C 237.347,164.034 238.68,163.2 240.5,163C 244.821,162.501 249.154,162.334 253.5,162.5 Z"/></g>
<g><path style="opacity:1" fill="#633776" d="M 347.5,163.5 C 314.002,164.332 280.336,164.832 246.5,165C 239.764,166.137 233.097,167.304 226.5,168.5C 229.505,166.723 232.838,165.723 236.5,165.5C 238.179,165.108 239.846,164.608 241.5,164C 276.832,163.5 312.165,163.333 347.5,163.5 Z"/></g>
<g><path style="opacity:1" fill="#a68db0" d="M 226.5,168.5 C 223.612,170.695 220.279,172.028 216.5,172.5C 218.801,169.082 222.134,167.749 226.5,168.5 Z"/></g>
<g><path style="opacity:1" fill="#815d8f" d="M 375.5,181.5 C 335.499,181.333 295.499,181.5 255.5,182C 250.816,182.435 246.149,182.935 241.5,183.5C 241.804,182.85 242.137,182.183 242.5,181.5C 286.998,180.169 331.331,180.169 375.5,181.5 Z"/></g>
<g><path style="opacity:1" fill="#ccbed2" d="M 375.5,181.5 C 380.002,183.338 382.669,186.672 383.5,191.5C 381.488,189.861 379.821,187.861 378.5,185.5C 377.167,184.833 375.833,184.167 374.5,183.5C 335.5,182.167 296.5,182.167 257.5,183.5C 248.324,184.662 239.324,186.328 230.5,188.5C 227.297,191.069 223.63,192.569 219.5,193C 217.48,195.866 214.814,197.699 211.5,198.5C 211.414,197.504 211.748,196.671 212.5,196C 215.723,193.938 219.057,192.104 222.5,190.5C 227.807,187.963 233.14,185.63 238.5,183.5C 239.5,183.5 240.5,183.5 241.5,183.5C 246.149,182.935 250.816,182.435 255.5,182C 295.499,181.5 335.499,181.333 375.5,181.5 Z"/></g>
<g><path style="opacity:1" fill="#fefdfe" d="M 383.5,191.5 C 384.487,198.673 387.154,205.006 391.5,210.5C 391.5,210.833 391.5,211.167 391.5,211.5C 392.308,214.959 392.975,218.459 393.5,222C 393.302,224.121 392.636,225.954 391.5,227.5C 346.165,227.333 300.832,227.5 255.5,228C 252.497,228.749 249.831,229.915 247.5,231.5C 244.86,231.954 242.527,233.121 240.5,235C 239.695,236.113 239.028,237.279 238.5,238.5C 237.292,239.234 235.959,239.567 234.5,239.5C 234.042,243.958 233.042,248.292 231.5,252.5C 230.883,252.611 230.383,252.944 230,253.5C 229.505,255.473 229.338,257.473 229.5,259.5C 215.859,260.407 202.192,260.74 188.5,260.5C 187.833,260.167 187.167,259.833 186.5,259.5C 186.38,257.801 186.046,256.135 185.5,254.5C 186.823,248.571 187.49,242.571 187.5,236.5C 187.629,234.784 187.962,233.117 188.5,231.5C 188.96,228.589 189.96,225.922 191.5,223.5C 192.458,223.047 193.292,222.381 194,221.5C 194.384,218.94 195.217,216.606 196.5,214.5C 198.633,212.909 200.299,210.909 201.5,208.5C 203.5,207.024 205.167,205.191 206.5,203C 207.793,202.51 209.127,202.343 210.5,202.5C 210.433,201.041 210.766,199.708 211.5,198.5C 214.814,197.699 217.48,195.866 219.5,193C 223.63,192.569 227.297,191.069 230.5,188.5C 239.324,186.328 248.324,184.662 257.5,183.5C 296.5,182.167 335.5,182.167 374.5,183.5C 375.833,184.167 377.167,184.833 378.5,185.5C 379.821,187.861 381.488,189.861 383.5,191.5 Z"/></g>
<g><path style="opacity:1" fill="#c6b5cc" d="M 151.5,163.5 C 149.629,167.186 147.129,170.519 144,173.5C 143.386,179.337 140.553,183.67 135.5,186.5C 139.394,177.782 144.727,170.115 151.5,163.5 Z"/></g>
<g><path style="opacity:1" fill="#7a5489" d="M 238.5,183.5 C 233.14,185.63 227.807,187.963 222.5,190.5C 223.486,188.484 225.153,187.151 227.5,186.5C 231.277,185.601 234.944,184.601 238.5,183.5 Z"/></g>
<g><path style="opacity:1" fill="#714881" d="M 205.5,179.5 C 202.192,183.926 198.525,188.092 194.5,192C 188.363,195.637 183.363,200.47 179.5,206.5C 179.892,204.821 180.392,203.154 181,201.5C 183.374,199.461 185.374,197.128 187,194.5C 192.145,188.183 198.312,183.183 205.5,179.5 Z"/></g>
<g><path style="opacity:1" fill="#b7a2bf" d="M 135.5,186.5 C 134.973,189.231 134.14,191.898 133,194.5C 132.292,195.381 131.458,196.047 130.5,196.5C 131.438,192.764 133.105,189.43 135.5,186.5 Z"/></g>
<g><path style="opacity:1" fill="#a48aae" d="M 211.5,198.5 C 210.766,199.708 210.433,201.041 210.5,202.5C 209.127,202.343 207.793,202.51 206.5,203C 205.167,205.191 203.5,207.024 201.5,208.5C 203.167,203.5 206.5,200.167 211.5,198.5 Z"/></g>
<g><path style="opacity:1" fill="#ab92b4" d="M 383.5,191.5 C 385.479,194.354 387.312,197.354 389,200.5C 389.661,203.946 390.495,207.279 391.5,210.5C 387.154,205.006 384.487,198.673 383.5,191.5 Z"/></g>
<g><path style="opacity:1" fill="#7c578b" d="M 174.5,215.5 C 174.657,216.873 174.49,218.207 174,219.5C 172.572,222.39 171.072,225.056 169.5,227.5C 169.557,226.391 169.89,225.391 170.5,224.5C 170.692,220.898 172.026,217.898 174.5,215.5 Z"/></g>
<g><path style="opacity:1" fill="#a288ad" d="M 391.5,211.5 C 392.793,212.842 393.626,214.509 394,216.5C 394.499,220.152 394.665,223.818 394.5,227.5C 393.5,227.5 392.5,227.5 391.5,227.5C 392.636,225.954 393.302,224.121 393.5,222C 392.975,218.459 392.308,214.959 391.5,211.5 Z"/></g>
<g><path style="opacity:1" fill="#a389ae" d="M 196.5,214.5 C 195.217,216.606 194.384,218.94 194,221.5C 193.292,222.381 192.458,223.047 191.5,223.5C 192.061,219.832 193.728,216.832 196.5,214.5 Z"/></g>
<g><path style="opacity:1" fill="#c3b2ca" d="M 391.5,227.5 C 391.5,227.833 391.5,228.167 391.5,228.5C 346.039,229.157 300.706,229.823 255.5,230.5C 252.721,230.279 250.054,230.612 247.5,231.5C 249.831,229.915 252.497,228.749 255.5,228C 300.832,227.5 346.165,227.333 391.5,227.5 Z"/></g>
<g><path style="opacity:1" fill="#825f91" d="M 391.5,228.5 C 391.389,229.117 391.056,229.617 390.5,230C 345.501,230.5 300.501,230.667 255.5,230.5C 300.706,229.823 346.039,229.157 391.5,228.5 Z"/></g>
<g><path style="opacity:1" fill="#b099b9" d="M 130.5,197.5 C 126.852,207.125 123.685,216.792 121,226.5C 118.926,237.085 118.26,247.752 119,258.5C 119.708,259.381 120.542,260.047 121.5,260.5C 121.611,261.117 121.944,261.617 122.5,262C 134.833,262.667 147.167,262.667 159.5,262C 160.244,260.961 161.244,260.461 162.5,260.5C 162.047,261.458 161.381,262.292 160.5,263C 147.5,263.667 134.5,263.667 121.5,263C 119.536,261.549 118.203,259.716 117.5,257.5C 117.02,248.025 117.687,238.691 119.5,229.5C 119.5,226.167 119.5,222.833 119.5,219.5C 120.5,219.5 121.5,219.5 122.5,219.5C 123.04,211.306 125.707,203.972 130.5,197.5 Z"/></g>
<g><path style="opacity:1" fill="#9a7da6" d="M 247.5,231.5 C 244.651,234.084 241.651,236.417 238.5,238.5C 239.028,237.279 239.695,236.113 240.5,235C 242.527,233.121 244.86,231.954 247.5,231.5 Z"/></g>
<g><path style="opacity:1" fill="#775087" d="M 119.5,229.5 C 117.687,238.691 117.02,248.025 117.5,257.5C 116.343,248.676 116.176,239.676 117,230.5C 117.671,229.748 118.504,229.414 119.5,229.5 Z"/></g>
<g><path style="opacity:1" fill="#8c6b99" d="M 329.5,250.5 C 328.244,250.539 327.244,250.039 326.5,249C 320.167,248.833 313.833,248.667 307.5,248.5C 300.796,248.504 294.463,249.17 288.5,250.5C 287.5,250.833 286.833,251.5 286.5,252.5C 285.065,253.913 284.065,255.58 283.5,257.5C 283.34,255.801 283.506,254.134 284,252.5C 285.353,251.315 286.52,249.981 287.5,248.5C 300.821,247.334 314.154,247.167 327.5,248C 328.381,248.708 329.047,249.542 329.5,250.5 Z"/></g>
<g><path style="opacity:1" fill="#8a6897" d="M 393.5,248.5 C 380.421,248.186 367.421,248.52 354.5,249.5C 360.631,248.17 367.131,247.503 374,247.5C 380.675,247.5 387.175,247.834 393.5,248.5 Z"/></g>
<g><path style="opacity:1" fill="#8a6897" d="M 238.5,238.5 C 234.986,244.23 233.153,250.564 233,257.5C 232.583,258.756 231.75,259.423 230.5,259.5C 231.219,257.236 231.552,254.903 231.5,252.5C 233.042,248.292 234.042,243.958 234.5,239.5C 235.959,239.567 237.292,239.234 238.5,238.5 Z"/></g>
<g><path style="opacity:1" fill="#d2c6d7" d="M 329.5,250.5 C 329.5,250.833 329.5,251.167 329.5,251.5C 315.87,250.554 302.203,250.22 288.5,250.5C 294.463,249.17 300.796,248.504 307.5,248.5C 313.833,248.667 320.167,248.833 326.5,249C 327.244,250.039 328.244,250.539 329.5,250.5 Z"/></g>
<g><path style="opacity:1" fill="#d3c7d8" d="M 393.5,248.5 C 393.5,249.167 393.5,249.833 393.5,250.5C 380.137,250.242 366.804,250.575 353.5,251.5C 353.833,250.833 354.167,250.167 354.5,249.5C 367.421,248.52 380.421,248.186 393.5,248.5 Z"/></g>
<g><path style="opacity:1" fill="#7a5489" d="M 169.5,227.5 C 167.571,237.357 166.404,247.357 166,257.5C 165.292,258.381 164.458,259.047 163.5,259.5C 165.171,252.666 166.004,245.666 166,238.5C 167.034,234.667 168.2,231.001 169.5,227.5 Z"/></g>
<g><path style="opacity:1" fill="#fdfcfd" d="M 288.5,250.5 C 302.203,250.22 315.87,250.554 329.5,251.5C 329.869,254.319 330.202,257.152 330.5,260C 328.996,265.029 328.33,270.196 328.5,275.5C 326.115,282.697 323.115,289.697 319.5,296.5C 319.672,297.492 319.338,298.158 318.5,298.5C 316.989,299.502 315.322,300.169 313.5,300.5C 313.296,302.685 312.63,304.685 311.5,306.5C 306.65,307.845 303.15,310.845 301,315.5C 298.479,316 296.646,317.333 295.5,319.5C 292.377,321.544 289.044,323.211 285.5,324.5C 282.05,325.91 278.384,326.576 274.5,326.5C 230.196,328.471 185.862,328.971 141.5,328C 140.756,326.961 139.756,326.461 138.5,326.5C 137.5,325.833 136.5,325.167 135.5,324.5C 133.279,322.307 131.946,319.64 131.5,316.5C 128.722,310.343 126.222,304.01 124,297.5C 123.501,292.845 123.334,288.179 123.5,283.5C 124.167,283.5 124.833,283.5 125.5,283.5C 170.627,282.843 215.627,282.177 260.5,281.5C 267.096,281.872 272.429,279.538 276.5,274.5C 278.328,273.206 280.328,272.206 282.5,271.5C 284.124,265.181 285.457,258.848 286.5,252.5C 286.833,251.5 287.5,250.833 288.5,250.5 Z"/></g>
<g><path style="opacity:0.998" fill="#fdfcfd" d="M 393.5,250.5 C 395.384,250.712 396.717,251.712 397.5,253.5C 398.685,260.838 398.685,268.171 397.5,275.5C 396.46,282.328 394.793,288.995 392.5,295.5C 391.086,298.076 389.586,300.743 388,303.5C 387.667,305.833 387.333,308.167 387,310.5C 385.733,312.814 384.566,315.148 383.5,317.5C 380.833,322.833 378.167,328.167 375.5,333.5C 375.262,335.404 374.262,336.738 372.5,337.5C 367.619,339.049 364.952,342.383 364.5,347.5C 359.81,348.687 356.476,351.52 354.5,356C 353.552,356.483 352.552,356.649 351.5,356.5C 351.296,358.685 350.63,360.685 349.5,362.5C 346.435,364.699 343.101,366.366 339.5,367.5C 339.5,368.5 339.5,369.5 339.5,370.5C 336.286,371.222 333.619,372.889 331.5,375.5C 327.824,376.17 324.491,377.67 321.5,380C 319.866,380.494 318.199,380.66 316.5,380.5C 316.5,381.5 316.5,382.5 316.5,383.5C 314.219,383.077 312.552,383.744 311.5,385.5C 307.306,385.55 303.306,386.383 299.5,388C 298.619,388.708 297.953,389.542 297.5,390.5C 288.151,391.851 278.651,392.851 269,393.5C 266.705,393.547 264.871,394.213 263.5,395.5C 256.159,395.666 248.826,395.5 241.5,395C 240.473,394.487 239.473,393.987 238.5,393.5C 231.546,391.301 224.213,389.968 216.5,389.5C 212.449,387.085 208.116,385.752 203.5,385.5C 203.167,384.5 202.5,383.833 201.5,383.5C 197.49,380.649 193.156,378.482 188.5,377C 182.275,372.597 175.941,368.43 169.5,364.5C 163.782,361.592 162.116,357.259 164.5,351.5C 165.609,351.443 166.609,351.11 167.5,350.5C 201.173,350.833 234.84,350.5 268.5,349.5C 272.122,348.675 275.789,348.175 279.5,348C 281.066,347.392 282.4,346.558 283.5,345.5C 289.639,344.236 295.639,342.402 301.5,340C 302.823,339.184 303.489,338.017 303.5,336.5C 310.598,333.742 316.598,329.409 321.5,323.5C 322.833,322.5 324.167,321.5 325.5,320.5C 328.866,317.507 332.032,314.174 335,310.5C 335.483,309.552 335.649,308.552 335.5,307.5C 336.6,306.395 337.267,305.062 337.5,303.5C 340.182,301.47 341.849,298.803 342.5,295.5C 342.182,292.519 343.182,290.185 345.5,288.5C 346.79,287.942 347.623,286.942 348,285.5C 351.494,274.508 353.327,263.175 353.5,251.5C 366.804,250.575 380.137,250.242 393.5,250.5 Z"/></g>
<g><path style="opacity:1" fill="#8e6e9b" d="M 188.5,231.5 C 187.962,233.117 187.629,234.784 187.5,236.5C 184.828,243.905 184.161,251.572 185.5,259.5C 184.188,257.257 183.522,254.59 183.5,251.5C 183.72,245.002 184.887,238.669 187,232.5C 187.383,231.944 187.883,231.611 188.5,231.5 Z"/></g>
<g><path style="opacity:1" fill="#cec0d3" d="M 187.5,236.5 C 187.49,242.571 186.823,248.571 185.5,254.5C 186.046,256.135 186.38,257.801 186.5,259.5C 186.167,259.5 185.833,259.5 185.5,259.5C 184.161,251.572 184.828,243.905 187.5,236.5 Z"/></g>
<g><path style="opacity:1" fill="#764f86" d="M 354.5,249.5 C 354.167,250.167 353.833,250.833 353.5,251.5C 352.768,252.808 351.934,254.142 351,255.5C 350.826,260.351 350.326,265.018 349.5,269.5C 349.334,263.824 349.501,258.157 350,252.5C 351.129,250.859 352.629,249.859 354.5,249.5 Z"/></g>
<g><path style="opacity:1" fill="#d0c3d6" d="M 329.5,251.5 C 330.222,251.918 330.722,252.584 331,253.5C 332.099,261.193 331.266,268.526 328.5,275.5C 328.33,270.196 328.996,265.029 330.5,260C 330.202,257.152 329.869,254.319 329.5,251.5 Z"/></g>
<g><path style="opacity:1" fill="#d3c7d8" d="M 170.5,224.5 C 169.89,225.391 169.557,226.391 169.5,227.5C 168.2,231.001 167.034,234.667 166,238.5C 166.004,245.666 165.171,252.666 163.5,259.5C 163.5,260.167 163.167,260.5 162.5,260.5C 161.244,260.461 160.244,260.961 159.5,262C 147.167,262.667 134.833,262.667 122.5,262C 121.944,261.617 121.611,261.117 121.5,260.5C 135.203,260.78 148.87,260.446 162.5,259.5C 162.408,250.048 163.241,240.714 165,231.5C 166.53,229.774 167.53,227.774 168,225.5C 168.671,224.748 169.504,224.414 170.5,224.5 Z"/></g>
<g><path style="opacity:1" fill="#d1c4d7" d="M 231.5,252.5 C 231.552,254.903 231.219,257.236 230.5,259.5C 230.5,260.167 230.167,260.5 229.5,260.5C 222.499,261.761 215.332,262.428 208,262.5C 201.131,262.497 194.631,261.83 188.5,260.5C 202.192,260.74 215.859,260.407 229.5,259.5C 229.338,257.473 229.505,255.473 230,253.5C 230.383,252.944 230.883,252.611 231.5,252.5 Z"/></g>
<g><path style="opacity:1" fill="#92729e" d="M 185.5,259.5 C 185.833,259.5 186.167,259.5 186.5,259.5C 187.167,259.833 187.833,260.167 188.5,260.5C 194.631,261.83 201.131,262.497 208,262.5C 215.332,262.428 222.499,261.761 229.5,260.5C 229.586,261.496 229.252,262.329 228.5,263C 214.821,263.833 201.154,263.666 187.5,262.5C 186.807,261.482 186.141,260.482 185.5,259.5 Z"/></g>
<g><path style="opacity:1" fill="#896796" d="M 393.5,248.5 C 395.258,248.877 396.925,249.544 398.5,250.5C 398.833,254.667 399.167,258.833 399.5,263C 399.491,267.557 398.825,271.724 397.5,275.5C 398.685,268.171 398.685,260.838 397.5,253.5C 396.717,251.712 395.384,250.712 393.5,250.5C 393.5,249.833 393.5,249.167 393.5,248.5 Z"/></g>
<g><path style="opacity:1" fill="#d1c3d6" d="M 286.5,252.5 C 285.457,258.848 284.124,265.181 282.5,271.5C 280.328,272.206 278.328,273.206 276.5,274.5C 278.05,270.78 280.217,267.447 283,264.5C 283.497,262.19 283.663,259.857 283.5,257.5C 284.065,255.58 285.065,253.913 286.5,252.5 Z"/></g>
<g><path style="opacity:1" fill="#cfc2d5" d="M 353.5,251.5 C 353.327,263.175 351.494,274.508 348,285.5C 347.623,286.942 346.79,287.942 345.5,288.5C 347.15,282.28 348.483,275.946 349.5,269.5C 350.326,265.018 350.826,260.351 351,255.5C 351.934,254.142 352.768,252.808 353.5,251.5 Z"/></g>
<g><path style="opacity:1" fill="#7f5a8e" d="M 276.5,274.5 C 272.429,279.538 267.096,281.872 260.5,281.5C 215.154,280.838 170.154,281.505 125.5,283.5C 124.833,283.5 124.167,283.5 123.5,283.5C 123.804,282.85 124.137,282.183 124.5,281.5C 172.167,280.833 219.833,280.167 267.5,279.5C 270.036,277.064 273.036,275.397 276.5,274.5 Z"/></g>
<g><path style="opacity:1" fill="#b09ab9" d="M 260.5,281.5 C 215.627,282.177 170.627,282.843 125.5,283.5C 170.154,281.505 215.154,280.838 260.5,281.5 Z"/></g>
<g><path style="opacity:1" fill="#9779a3" d="M 329.5,251.5 C 329.5,251.167 329.5,250.833 329.5,250.5C 330.496,250.414 331.329,250.748 332,251.5C 333.606,267.491 330.106,282.158 321.5,295.5C 320.817,295.863 320.15,296.196 319.5,296.5C 323.115,289.697 326.115,282.697 328.5,275.5C 331.266,268.526 332.099,261.193 331,253.5C 330.722,252.584 330.222,251.918 329.5,251.5 Z"/></g>
<g><path style="opacity:1" fill="#846193" d="M 397.5,275.5 C 397.642,284.813 395.642,293.48 391.5,301.5C 391.517,299.435 391.85,297.435 392.5,295.5C 394.793,288.995 396.46,282.328 397.5,275.5 Z"/></g>
<g><path style="opacity:1" fill="#8f6e9b" d="M 123.5,283.5 C 123.334,288.179 123.501,292.845 124,297.5C 126.222,304.01 128.722,310.343 131.5,316.5C 125.591,308.585 122.258,299.585 121.5,289.5C 121.539,287.048 122.206,285.048 123.5,283.5 Z"/></g>
<g><path style="opacity:1" fill="#9d81a8" d="M 342.5,295.5 C 341.849,298.803 340.182,301.47 337.5,303.5C 338.301,300.218 339.968,297.552 342.5,295.5 Z"/></g>
<g><path style="opacity:1" fill="#cbbcd1" d="M 392.5,295.5 C 391.85,297.435 391.517,299.435 391.5,301.5C 391.5,302.167 391.5,302.833 391.5,303.5C 390.685,304.429 389.852,305.429 389,306.5C 388.725,309.412 387.891,312.079 386.5,314.5C 386.5,314.833 386.5,315.167 386.5,315.5C 385.5,316.167 384.5,316.833 383.5,317.5C 384.566,315.148 385.733,312.814 387,310.5C 387.333,308.167 387.667,305.833 388,303.5C 389.586,300.743 391.086,298.076 392.5,295.5 Z"/></g>
<g><path style="opacity:1" fill="#a88fb2" d="M 318.5,298.5 C 317.766,299.708 317.433,301.041 317.5,302.5C 315.127,303.203 313.127,304.536 311.5,306.5C 312.63,304.685 313.296,302.685 313.5,300.5C 315.322,300.169 316.989,299.502 318.5,298.5 Z"/></g>
<g><path style="opacity:1" fill="#764f86" d="M 391.5,303.5 C 390.234,306.301 389.401,309.301 389,312.5C 388.292,313.381 387.458,314.047 386.5,314.5C 387.891,312.079 388.725,309.412 389,306.5C 389.852,305.429 390.685,304.429 391.5,303.5 Z"/></g>
<g><path style="opacity:1" fill="#a58aaf" d="M 311.5,306.5 C 307.273,312.269 301.939,316.603 295.5,319.5C 296.646,317.333 298.479,316 301,315.5C 303.15,310.845 306.65,307.845 311.5,306.5 Z"/></g>
<g><path style="opacity:1" fill="#baa7c2" d="M 335.5,307.5 C 335.649,308.552 335.483,309.552 335,310.5C 332.032,314.174 328.866,317.507 325.5,320.5C 328.118,315.587 331.452,311.254 335.5,307.5 Z"/></g>
<g><path style="opacity:1" fill="#896796" d="M 386.5,315.5 C 384.545,320.743 382.045,325.743 379,330.5C 377.961,331.71 376.794,332.71 375.5,333.5C 378.167,328.167 380.833,322.833 383.5,317.5C 384.5,316.833 385.5,316.167 386.5,315.5 Z"/></g>
<g><path style="opacity:1" fill="#8b6a98" d="M 135.5,324.5 C 136.5,325.167 137.5,325.833 138.5,326.5C 138.953,327.458 139.619,328.292 140.5,329C 183.5,329.667 226.5,329.667 269.5,329C 271.315,328.243 272.981,327.41 274.5,326.5C 278.384,326.576 282.05,325.91 285.5,324.5C 281.104,326.65 276.438,328.484 271.5,330C 227.5,330.667 183.5,330.667 139.5,330C 137.536,328.549 136.203,326.716 135.5,324.5 Z"/></g>
<g><path style="opacity:1" fill="#d6cbdb" d="M 138.5,326.5 C 139.756,326.461 140.756,326.961 141.5,328C 185.862,328.971 230.196,328.471 274.5,326.5C 272.981,327.41 271.315,328.243 269.5,329C 226.5,329.667 183.5,329.667 140.5,329C 139.619,328.292 138.953,327.458 138.5,326.5 Z"/></g>
<g><path style="opacity:1" fill="#987aa4" d="M 321.5,323.5 C 316.598,329.409 310.598,333.742 303.5,336.5C 309.426,332.268 315.426,327.935 321.5,323.5 Z"/></g>
<g><path style="opacity:1" fill="#aa91b3" d="M 303.5,336.5 C 303.489,338.017 302.823,339.184 301.5,340C 295.639,342.402 289.639,344.236 283.5,345.5C 279.626,346.761 275.626,347.428 271.5,347.5C 276.083,345.142 281.083,343.975 286.5,344C 292.01,341.046 297.677,338.546 303.5,336.5 Z"/></g>
<g><path style="opacity:1" fill="#c3b1ca" d="M 372.5,337.5 C 370.893,341.764 368.226,345.098 364.5,347.5C 364.952,342.383 367.619,339.049 372.5,337.5 Z"/></g>
<g><path style="opacity:1" fill="#9476a0" d="M 267.5,347.5 C 233.987,347.835 200.654,348.835 167.5,350.5C 166.609,351.11 165.609,351.443 164.5,351.5C 165.141,350.518 165.807,349.518 166.5,348.5C 200.16,347.5 233.827,347.167 267.5,347.5 Z"/></g>
<g><path style="opacity:1" fill="#d6cbdb" d="M 283.5,345.5 C 282.4,346.558 281.066,347.392 279.5,348C 275.789,348.175 272.122,348.675 268.5,349.5C 234.84,350.5 201.173,350.833 167.5,350.5C 200.654,348.835 233.987,347.835 267.5,347.5C 268.833,347.5 270.167,347.5 271.5,347.5C 275.626,347.428 279.626,346.761 283.5,345.5 Z"/></g>
<g><path style="opacity:1" fill="#ccbdd2" d="M 364.5,347.5 C 359.86,352.806 354.86,357.806 349.5,362.5C 350.63,360.685 351.296,358.685 351.5,356.5C 352.552,356.649 353.552,356.483 354.5,356C 356.476,351.52 359.81,348.687 364.5,347.5 Z"/></g>
<g><path style="opacity:1" fill="#704881" d="M 349.5,362.5 C 348.766,363.708 348.433,365.041 348.5,366.5C 343.922,368.717 339.589,371.55 335.5,375C 334.207,375.49 332.873,375.657 331.5,375.5C 333.619,372.889 336.286,371.222 339.5,370.5C 339.5,369.5 339.5,368.5 339.5,367.5C 343.101,366.366 346.435,364.699 349.5,362.5 Z"/></g>
<g><path style="opacity:1" fill="#baa6c2" d="M 169.5,364.5 C 175.941,368.43 182.275,372.597 188.5,377C 193.156,378.482 197.49,380.649 201.5,383.5C 198.345,383.023 195.345,382.023 192.5,380.5C 183.706,376.693 176.039,371.359 169.5,364.5 Z"/></g>
<g><path style="opacity:1" fill="#7c568a" d="M 331.5,375.5 C 330.71,376.794 329.71,377.961 328.5,379C 324.545,380.813 320.545,382.313 316.5,383.5C 316.5,382.5 316.5,381.5 316.5,380.5C 318.199,380.66 319.866,380.494 321.5,380C 324.491,377.67 327.824,376.17 331.5,375.5 Z"/></g>
<g><path style="opacity:1" fill="#663b78" d="M 192.5,380.5 C 195.345,382.023 198.345,383.023 201.5,383.5C 202.5,383.833 203.167,384.5 203.5,385.5C 206.5,386.833 209.5,388.167 212.5,389.5C 208.077,389.31 203.744,388.643 199.5,387.5C 199.5,386.5 199.5,385.5 199.5,384.5C 196.674,384.002 194.34,382.669 192.5,380.5 Z"/></g>
<g><path style="opacity:1" fill="#ab93b5" d="M 311.5,385.5 C 307.12,387.519 302.454,389.186 297.5,390.5C 297.953,389.542 298.619,388.708 299.5,388C 303.306,386.383 307.306,385.55 311.5,385.5 Z"/></g>
<g><path style="opacity:1" fill="#d4c7d9" d="M 203.5,385.5 C 208.116,385.752 212.449,387.085 216.5,389.5C 224.213,389.968 231.546,391.301 238.5,393.5C 233.341,393.818 228.341,393.152 223.5,391.5C 219.556,391.887 215.889,391.22 212.5,389.5C 209.5,388.167 206.5,386.833 203.5,385.5 Z"/></g>
<g><path style="opacity:1" fill="#cbbcd1" d="M 297.5,390.5 C 290.357,392.722 283.023,394.389 275.5,395.5C 271.5,395.5 267.5,395.5 263.5,395.5C 264.871,394.213 266.705,393.547 269,393.5C 278.651,392.851 288.151,391.851 297.5,390.5 Z"/></g>
<g><path style="opacity:1" fill="#987ba4" d="M 223.5,391.5 C 228.341,393.152 233.341,393.818 238.5,393.5C 239.473,393.987 240.473,394.487 241.5,395C 248.826,395.5 256.159,395.666 263.5,395.5C 267.5,395.5 271.5,395.5 275.5,395.5C 262.673,396.66 249.673,396.827 236.5,396C 232.5,395 228.5,394 224.5,393C 223.944,392.617 223.611,392.117 223.5,391.5 Z"/></g>
<g><path style="opacity:0.137" fill="#b399b8" d="M 0.5,399.5 C 1.5,399.5 2.5,399.5 3.5,399.5C 3.5,402.167 3.5,404.833 3.5,407.5C 1.01812,405.497 0.0181167,402.831 0.5,399.5 Z"/></g>
<g><path style="opacity:0.141" fill="#9a7fa5" d="M 3.5,412.5 C 4.5,412.5 5.5,412.5 6.5,412.5C 6.5,414.5 6.5,416.5 6.5,418.5C 4.08699,417.32 3.08699,415.32 3.5,412.5 Z"/></g>
<g><path style="opacity:0.078" fill="#92769e" d="M 510.5,422.5 C 510.5,423.5 510.5,424.5 510.5,425.5C 509.5,425.5 508.5,425.5 507.5,425.5C 507.5,424.5 507.5,423.5 507.5,422.5C 508.5,422.5 509.5,422.5 510.5,422.5 Z"/></g>
<g><path style="opacity:0.053" fill="#9c889d" d="M 8.5,430.5 C 9.5,430.5 10.5,430.5 11.5,430.5C 11.5,431.5 11.5,432.5 11.5,433.5C 10.5,433.5 9.5,433.5 8.5,433.5C 8.5,432.5 8.5,431.5 8.5,430.5 Z"/></g>
<g><path style="opacity:0.798" fill="#552368" d="M 507.5,428.5 C 506.273,433.781 504.607,438.781 502.5,443.5C 501.5,443.5 500.5,443.5 499.5,443.5C 498.833,446.833 498.167,450.167 497.5,453.5C 496.5,453.5 495.5,453.5 494.5,453.5C 494.169,455.322 493.502,456.989 492.5,458.5C 491.5,458.5 490.5,458.5 489.5,458.5C 489.5,459.5 489.5,460.5 489.5,461.5C 488.931,464.335 487.264,466.001 484.5,466.5C 484.167,469.5 482.5,471.167 479.5,471.5C 479.5,472.5 479.5,473.5 479.5,474.5C 476.5,474.833 474.833,476.5 474.5,479.5C 473.5,479.5 472.5,479.5 471.5,479.5C 471.167,482.5 469.5,484.167 466.5,484.5C 465.5,484.5 464.5,484.5 463.5,484.5C 464.67,482.721 466.336,481.721 468.5,481.5C 468.5,480.5 468.5,479.5 468.5,478.5C 469.5,478.5 470.5,478.5 471.5,478.5C 471.281,477.325 471.614,476.325 472.5,475.5C 475.561,472.261 478.894,469.261 482.5,466.5C 483.386,465.675 483.719,464.675 483.5,463.5C 484.5,463.5 485.5,463.5 486.5,463.5C 490.277,452.999 494.943,442.999 500.5,433.5C 503.91,433.616 505.244,431.95 504.5,428.5C 505.5,428.5 506.5,428.5 507.5,428.5 Z"/></g>
<g><path style="opacity:0.141" fill="#673d79" d="M 16.5,445.5 C 18.2624,445.357 19.9291,445.691 21.5,446.5C 22.3035,449.244 23.3035,451.911 24.5,454.5C 24.4573,455.416 24.1239,456.083 23.5,456.5C 19.5847,453.984 17.2514,450.317 16.5,445.5 Z"/></g>
<g><path style="opacity:0.008" fill="#8e8091" d="M 492.5,458.5 C 492.5,460.5 491.5,461.5 489.5,461.5C 489.5,460.5 489.5,459.5 489.5,458.5C 490.5,458.5 491.5,458.5 492.5,458.5 Z"/></g>
<g><path style="opacity:0.198" fill="#542467" d="M 68.5,497.5 C 65.7379,495.989 62.7379,494.656 59.5,493.5C 58.3901,491.8 57.0568,490.466 55.5,489.5C 55.5,488.5 55.5,487.5 55.5,486.5C 53.5,485.833 51.5,485.167 49.5,484.5C 47.9891,483.498 46.3224,482.831 44.5,482.5C 44.5,481.5 44.5,480.5 44.5,479.5C 43.5,479.5 42.5,479.5 41.5,479.5C 41.1667,476.5 39.5,474.833 36.5,474.5C 36.1667,471.5 34.5,469.833 31.5,469.5C 29.4495,465.973 27.1162,462.64 24.5,459.5C 25.3864,458.224 26.3864,458.224 27.5,459.5C 28.8532,460.524 29.5198,461.857 29.5,463.5C 31.6547,463.372 33.6547,463.872 35.5,465C 40.6118,470.714 45.6118,476.547 50.5,482.5C 56.9918,485.728 62.9918,489.394 68.5,493.5C 68.5,494.833 68.5,496.167 68.5,497.5 Z"/></g>
<g><path style="opacity:0.102" fill="#9471b1" d="M 463.5,484.5 C 464.5,484.5 465.5,484.5 466.5,484.5C 466.5,485.5 466.5,486.5 466.5,487.5C 464.678,487.831 463.011,488.498 461.5,489.5C 461.5,488.5 461.5,487.5 461.5,486.5C 462.833,486.5 463.5,485.833 463.5,484.5 Z"/></g>
<g><path style="opacity:0.49" fill="#5e2f70" d="M 461.5,486.5 C 461.5,487.5 461.5,488.5 461.5,489.5C 459.851,490.714 458.185,492.047 456.5,493.5C 454.955,494.452 453.288,494.785 451.5,494.5C 451.5,495.5 451.5,496.5 451.5,497.5C 450.167,497.5 448.833,497.5 447.5,497.5C 447.5,496.167 447.5,494.833 447.5,493.5C 448.833,493.5 450.167,493.5 451.5,493.5C 451.5,492.5 451.5,491.5 451.5,490.5C 453.76,489.861 455.76,488.694 457.5,487C 458.793,486.51 460.127,486.343 461.5,486.5 Z"/></g>
<g><path style="opacity:0.047" fill="#8a6996" d="M 49.5,484.5 C 51.5,485.167 53.5,485.833 55.5,486.5C 55.5,487.5 55.5,488.5 55.5,489.5C 53.5,488.833 51.5,488.167 49.5,487.5C 49.5,486.5 49.5,485.5 49.5,484.5 Z"/></g>
<g><path style="opacity:0.455" fill="#5c2c6e" d="M 441.5,499.5 C 441.586,500.496 441.252,501.329 440.5,502C 437.997,502.129 435.997,503.129 434.5,505C 430.546,506.154 426.546,506.987 422.5,507.5C 422.5,506.167 422.5,504.833 422.5,503.5C 427.275,501.722 432.275,500.056 437.5,498.5C 438.925,498.623 440.258,498.957 441.5,499.5 Z"/></g>
<g><path style="opacity:0.031" fill="#81528c" d="M 80.5,502.5 C 82.5,502.5 84.5,502.5 86.5,502.5C 86.5,503.5 86.5,504.5 86.5,505.5C 84.8008,505.66 83.1341,505.494 81.5,505C 80.7476,504.329 80.4142,503.496 80.5,502.5 Z"/></g>
<g><path style="opacity:0.122" fill="#9d78a7" d="M 95.5,507.5 C 97.5,507.5 99.5,507.5 101.5,507.5C 101.5,508.5 101.5,509.5 101.5,510.5C 99.8008,510.66 98.1341,510.494 96.5,510C 95.7476,509.329 95.4142,508.496 95.5,507.5 Z"/></g>
<g><path style="opacity:0.039" fill="#a396b3" d="M 420.5,507.5 C 420.306,509.912 418.973,510.912 416.5,510.5C 416.196,509.85 415.863,509.183 415.5,508.5C 417.045,507.548 418.712,507.215 420.5,507.5 Z"/></g>
<g><path style="opacity:0.471" fill="#835b91" d="M 117.5,511.5 C 114.5,511.5 111.5,511.5 108.5,511.5C 108.5,511.167 108.5,510.833 108.5,510.5C 110.488,510.173 112.488,509.84 114.5,509.5C 116.03,509.64 117.03,510.307 117.5,511.5 Z"/></g>
</svg>
